<?xml version="1.0" standalone="no"?>
<!DOCTYPE svg PUBLIC "-//W3C//DTD SVG 20010904//EN"
 "http://www.w3.org/TR/2001/REC-SVG-20010904/DTD/svg10.dtd">
<svg version="1.0" xmlns="http://www.w3.org/2000/svg"
 width="430.000000pt" height="445.000000pt" viewBox="0 0 430.000000 445.000000"
 preserveAspectRatio="xMidYMid meet">

<g transform="translate(0.000000,445.000000) scale(0.100000,-0.100000)"
fill="#000000" stroke="none">
<path d="M2209 3946 c-2 -2 -28 -6 -58 -9 -29 -3 -58 -10 -64 -16 -6 -6 -26
-11 -44 -11 -20 0 -43 -9 -60 -24 -84 -74 -139 -120 -189 -158 -90 -67 -171
-171 -194 -247 -11 -35 -23 -80 -26 -100 -6 -37 10 -269 22 -308 5 -18 1 -22
-22 -25 -38 -4 -54 -38 -54 -115 0 -78 41 -213 78 -254 22 -24 37 -31 72 -33
l44 -2 33 -76 c18 -42 37 -105 42 -141 9 -64 9 -66 -33 -151 -36 -72 -51 -91
-91 -118 -37 -24 -44 -33 -31 -38 20 -7 49 -48 76 -109 11 -24 28 -50 38 -57
11 -9 13 -13 4 -14 -7 0 -10 -5 -7 -10 4 -6 10 -8 14 -6 4 3 18 -24 31 -60 23
-66 53 -96 170 -173 l35 -23 -30 28 c-16 15 -44 39 -61 54 -47 40 -47 46 -1
41 38 -3 77 -30 77 -52 0 -19 44 -48 65 -43 17 4 24 0 28 -15 6 -25 -9 -37
-28 -21 -11 9 -13 7 -10 -7 2 -10 4 -22 4 -26 1 -5 10 -5 21 -2 12 4 20 2 20
-5 0 -6 -6 -8 -12 -5 -17 8 33 -35 66 -57 35 -25 235 -293 242 -326 9 -45 75
-252 80 -252 2 0 3 10 0 23 -2 12 -7 40 -11 62 -12 72 -67 300 -72 305 -3 3
-3 -11 1 -30 3 -19 3 -30 -2 -25 -4 6 -26 33 -47 60 -22 28 -43 52 -47 53 -14
6 -68 90 -68 104 0 8 -18 32 -40 53 -38 37 -54 85 -29 85 6 0 40 -27 75 -60
36 -33 79 -67 97 -76 17 -9 40 -23 49 -32 16 -13 18 -12 28 13 6 16 9 38 8 49
-2 15 3 22 20 24 27 4 29 18 2 25 -11 3 -24 15 -28 28 -8 21 -10 20 -16 -14
-9 -49 -20 -53 -59 -23 -19 15 -38 26 -44 26 -5 0 -18 10 -29 21 l-19 22 35
-6 c19 -3 49 -9 66 -12 26 -6 32 -4 37 15 3 12 10 19 15 16 6 -3 12 -2 14 3 1
6 21 13 43 16 37 6 42 5 53 -19 6 -14 16 -26 21 -26 5 0 26 19 45 42 20 23 38
40 40 37 8 -8 10 -74 2 -87 -4 -6 -23 -12 -43 -12 -34 0 -74 -22 -117 -66 -26
-26 -18 -34 33 -34 28 0 53 -4 56 -10 3 -5 18 -10 33 -10 20 0 33 8 46 31 16
27 19 29 30 13 11 -15 16 -12 44 30 28 41 32 56 32 112 0 39 6 77 16 95 17 34
16 70 -3 77 -8 2 -13 -6 -13 -20 0 -13 -9 -39 -20 -58 -41 -71 -45 -81 -32
-88 7 -5 8 -13 2 -22 -8 -12 -10 -11 -10 4 0 16 -3 17 -12 8 -37 -37 -31 7 9
66 18 27 23 45 19 68 -4 17 -3 34 1 38 8 7 8 13 11 86 2 34 5 41 13 30 7 -11
8 -1 4 35 -3 28 -7 75 -9 105 -3 80 -21 110 -89 143 -74 37 -75 57 -7 160 27
41 59 104 71 139 15 49 28 69 50 82 31 18 58 56 39 56 -5 0 -10 7 -10 16 0 10
5 14 16 10 8 -3 13 -2 9 3 -3 5 -1 11 5 13 5 1 17 53 26 115 20 131 12 170
-37 180 -26 5 -27 8 -21 37 10 46 6 272 -7 341 -16 84 -58 160 -146 263 -11
13 -35 33 -54 44 -18 12 -39 35 -46 52 -16 38 -47 68 -105 100 -25 14 -56 32
-70 39 -26 15 -93 30 -101 23z m81 -337 c8 -2 26 -14 40 -26 13 -13 32 -23 42
-23 21 0 71 -62 57 -71 -11 -6 -3 -16 40 -51 12 -10 26 -18 31 -18 5 0 7 -7 4
-15 -4 -9 -1 -15 7 -15 15 0 59 -39 59 -52 0 -5 -19 -6 -42 -3 -31 4 -60 0
-102 -14 -33 -12 -69 -21 -81 -21 -13 0 -28 -7 -35 -15 -7 -9 -19 -14 -25 -11
-7 2 -20 -11 -29 -30 -16 -34 -15 -35 8 -57 17 -16 25 -38 30 -76 14 -113 37
-168 79 -184 9 -3 17 -14 17 -23 0 -12 -4 -14 -12 -7 -17 14 -44 9 -64 -11
-23 -24 -80 -21 -98 6 -12 17 -13 24 -3 30 6 4 9 8 4 8 -4 0 -1 14 8 30 12 23
13 35 5 50 -6 11 -7 20 -2 20 10 0 6 37 -10 93 -8 27 -8 43 0 60 21 43 19 61
-12 82 -63 42 -89 56 -100 52 -6 -3 -40 10 -76 27 -54 26 -65 35 -65 56 0 15
5 24 13 23 7 -2 12 7 12 20 0 12 6 31 14 42 7 11 17 31 21 44 10 32 44 60 73
61 12 0 22 4 22 9 0 5 10 12 23 15 22 4 119 1 147 -5z m-202 -587 c14 -27 17
-43 10 -55 -15 -28 -163 -117 -194 -117 -7 0 -22 12 -33 26 -12 15 -21 21 -21
14 0 -7 -3 -11 -6 -7 -3 3 2 20 12 37 15 25 16 34 6 50 -10 16 -10 24 0 40 10
16 23 19 74 19 38 -1 73 5 90 15 39 21 39 21 62 -22z m451 -2 c76 2 83 1 77
-9 -3 -5 1 -12 10 -15 13 -5 15 -15 11 -40 -3 -19 -1 -38 5 -44 14 -14 0 -52
-18 -52 -9 0 -25 5 -36 11 -18 10 -20 9 -15 -5 6 -16 -18 -24 -25 -8 -2 6
-111 82 -167 117 -37 23 -41 48 -6 35 21 -8 25 -7 25 9 0 28 9 30 47 14 20 -8
61 -14 92 -13z m-379 -11 c0 -5 -4 -9 -8 -9 -5 0 -9 7 -9 15 0 8 4 12 9 9 4
-3 8 -9 8 -15z m-13 -115 c-3 -3 -12 -4 -19 -1 -8 3 -5 6 6 6 11 1 17 -2 13
-5z m-272 -44 c-3 -5 -11 -10 -16 -10 -6 0 -7 5 -4 10 3 6 11 10 16 10 6 0 7
-4 4 -10z m889 -15 c-4 -8 -8 -15 -10 -15 -2 0 -4 7 -4 15 0 8 4 15 10 15 5 0
7 -7 4 -15z m-467 -107 c-7 -4 -28 -8 -47 -8 -19 0 -40 4 -47 8 -6 4 15 7 47
7 32 0 53 -3 47 -7z m-59 -90 c9 -9 17 -9 36 1 14 8 30 10 38 5 7 -5 21 -7 31
-5 15 2 18 -3 15 -26 -2 -21 -8 -28 -25 -28 -11 0 -24 -3 -27 -6 -9 -9 -99 1
-110 12 -5 5 -16 3 -24 -3 -11 -10 -17 -9 -27 5 -7 9 -17 17 -24 17 -6 0 -11
5 -11 11 0 6 7 9 15 6 8 -4 17 -2 21 4 3 5 14 7 24 4 10 -3 21 -1 25 5 8 13
28 13 43 -2z m152 -17 c0 -6 -4 -13 -10 -16 -5 -3 -10 1 -10 9 0 9 5 16 10 16
6 0 10 -4 10 -9z m-140 -115 c0 -2 -7 -6 -15 -10 -8 -3 -15 -1 -15 4 0 6 7 10
15 10 8 0 15 -2 15 -4z m40 -6 c0 -5 -7 -7 -15 -4 -8 4 -15 8 -15 10 0 2 7 4
15 4 8 0 15 -4 15 -10z m-335 -469 c22 -17 56 -38 75 -48 92 -46 259 -163 279
-196 20 -33 42 -113 24 -92 -4 6 -19 16 -33 23 -22 11 -22 11 -2 6 59 -15 -12
99 -80 127 -31 13 -32 12 -74 -34 -23 -26 -46 -47 -51 -47 -18 0 -159 150
-193 205 -8 14 -20 25 -28 25 -7 0 -15 7 -18 15 -4 8 -10 15 -16 15 -5 0 -6
-5 -3 -10 3 -6 -1 -13 -10 -17 -10 -3 -21 0 -26 8 -12 19 -11 42 0 34 5 -3 16
3 23 13 27 38 51 33 133 -27z m-106 -83 c8 -17 22 -39 33 -50 16 -16 17 -20 4
-33 -19 -19 -30 -19 -22 0 3 8 0 15 -7 16 -9 0 -9 2 1 6 8 3 2 14 -18 33 -16
15 -30 37 -30 49 0 29 22 17 39 -21z m16 22 c3 -5 1 -10 -4 -10 -6 0 -11 5
-11 10 0 6 2 10 4 10 3 0 8 -4 11 -10z m52 -167 c-11 -10 -27 8 -27 30 l0 21
16 -22 c9 -13 14 -26 11 -29z m350 -25 c12 -27 7 -48 -12 -48 -16 0 -35 30
-35 54 0 24 35 19 47 -6z"/>
<path d="M930 1760 c0 -5 11 -10 25 -10 31 0 73 -20 138 -67 27 -19 52 -31 55
-28 9 9 -76 83 -115 101 -37 16 -103 19 -103 4z"/>
<path d="M1257 1689 c12 -13 42 -58 67 -99 25 -41 46 -69 46 -64 0 19 -105
177 -120 182 -10 3 -8 -3 7 -19z"/>
<path d="M940 1626 c0 -4 42 -26 94 -50 52 -24 98 -50 102 -58 5 -8 16 -19 25
-24 39 -23 289 -304 289 -325 0 -7 7 -21 16 -30 17 -18 126 -296 165 -417 11
-35 23 -62 26 -59 3 3 0 45 -7 93 -8 60 -17 92 -28 101 -16 12 -15 13 2 6 14
-4 17 -2 14 8 -3 8 -10 13 -15 12 -6 -1 -20 21 -32 50 -12 29 -38 84 -57 123
-19 39 -34 79 -34 88 0 17 -145 206 -158 206 -4 0 -58 49 -120 108 -110 106
-183 155 -250 168 -18 4 -32 4 -32 0z"/>
<path d="M2335 1600 c3 -5 8 -10 11 -10 2 0 4 5 4 10 0 6 -5 10 -11 10 -5 0
-7 -4 -4 -10z"/>
<path d="M1450 1354 c0 -13 18 -39 24 -34 2 3 -2 14 -10 24 -8 11 -14 16 -14
10z"/>
<path d="M765 1261 c-8 -47 3 -66 61 -101 17 -11 34 -29 37 -39 3 -13 17 -21
45 -26 23 -4 53 -18 69 -33 56 -53 118 -102 128 -102 6 0 -20 29 -57 64 -38
34 -68 68 -68 73 0 6 -22 19 -50 29 -27 10 -50 23 -50 29 0 6 -16 27 -36 46
-20 18 -44 50 -54 69 l-18 34 -7 -43z"/>
<path d="M3425 1260 c-10 -11 -16 -22 -13 -25 3 -3 13 6 22 20 20 30 16 32 -9
5z"/>
<path d="M3539 1253 c-13 -16 -12 -17 4 -4 16 13 21 21 13 21 -2 0 -10 -8 -17
-17z"/>
<path d="M1517 1218 c7 -37 45 -106 50 -91 4 10 -44 123 -52 123 -2 0 -2 -15
2 -32z"/>
<path d="M1590 1175 c0 -2 11 -48 25 -102 35 -142 55 -264 62 -378 6 -98 7
-101 45 -146 42 -51 43 -74 0 -82 -32 -6 -65 15 -92 58 -24 38 -26 63 -5 71 8
4 15 14 15 24 0 13 -5 17 -20 13 -16 -4 -20 0 -20 19 0 14 -9 33 -19 42 -19
17 -19 17 -14 -2 5 -20 -25 -40 -36 -24 -9 12 -63 52 -71 52 -4 0 -11 -7 -14
-16 -8 -22 31 -87 93 -152 28 -30 51 -57 51 -61 0 -4 18 -16 39 -26 56 -25 95
-68 86 -94 -14 -46 -93 -58 -146 -21 -106 73 -128 94 -117 107 9 11 6 13 -14
9 -14 -2 -36 1 -49 8 -13 6 -43 17 -65 24 -32 9 -45 20 -55 44 l-13 31 -9 -27
c-11 -34 -5 -41 83 -95 45 -27 64 -44 62 -56 -2 -10 2 -15 9 -13 7 2 73 -33
148 -77 149 -90 172 -116 136 -155 -34 -38 -82 -23 -184 55 -31 24 -69 55 -84
69 -16 15 -32 24 -36 21 -5 -2 -16 4 -26 15 -9 10 -30 22 -47 25 -16 4 -32 13
-35 21 -8 22 -25 16 -21 -8 2 -14 29 -42 73 -75 57 -43 75 -52 98 -47 23 5 34
-1 62 -30 18 -20 38 -36 44 -36 5 0 26 -20 47 -45 35 -43 38 -45 91 -45 31 0
52 4 48 9 -3 5 -1 13 5 16 6 4 8 16 5 28 -5 20 -5 20 5 4 8 -13 9 -22 1 -31
-14 -17 -4 -26 28 -26 57 0 67 8 64 51 -2 35 0 39 13 29 7 -7 14 -19 14 -27 0
-11 5 -13 18 -7 36 16 90 16 121 -1 18 -9 54 -19 81 -22 43 -5 52 -2 87 25 21
17 50 34 66 37 32 8 39 17 31 39 -15 39 -204 55 -239 20 -26 -26 -57 -10 -85
43 -13 26 -28 50 -31 53 -4 3 -19 41 -34 85 -15 44 -31 82 -35 85 -17 12 -72
133 -104 231 -19 58 -50 177 -70 265 -44 197 -46 204 -57 204 -5 0 -9 -2 -9
-5z m181 -904 c-11 -7 -10 -10 5 -13 11 -2 14 -6 9 -10 -15 -9 -39 7 -31 21 4
6 13 11 19 11 8 0 7 -3 -2 -9z m74 -57 c10 -15 13 -30 8 -35 -5 -5 -16 6 -25
26 -18 41 -8 47 17 9z"/>
<path d="M3448 1114 c-32 -31 -55 -61 -52 -66 6 -10 98 73 115 105 18 31 -5
17 -63 -39z"/>
<path d="M721 964 c-1 -83 9 -91 125 -98 50 -3 104 -10 118 -16 33 -12 39 -13
32 -1 -3 5 -51 21 -107 36 -109 30 -138 50 -156 106 -11 33 -11 32 -12 -27z"/>
<path d="M3390 990 c0 -11 2 -20 5 -20 2 0 9 9 15 20 9 16 8 20 -5 20 -8 0
-15 -9 -15 -20z"/>
<path d="M3373 632 c-6 -4 -15 -21 -19 -37 -7 -33 -41 -75 -60 -75 -6 0 -17
-6 -23 -14 -7 -8 -26 -18 -42 -21 -16 -4 -29 -10 -29 -15 0 -12 -57 -33 -70
-25 -13 8 -70 -51 -70 -74 0 -9 13 -25 29 -34 17 -10 51 -42 77 -72 25 -30 50
-55 54 -55 6 0 7 37 2 62 -1 4 -21 19 -43 34 -52 33 -41 45 40 47 34 1 61 5
61 9 0 12 17 9 32 -6 8 -7 23 -16 33 -20 11 -3 32 -25 48 -49 28 -46 34 -67
17 -67 -5 0 -10 6 -10 14 0 8 -5 18 -10 21 -7 4 -9 -3 -5 -22 4 -15 3 -23 -2
-17 -4 6 -18 13 -31 16 -20 6 -22 3 -19 -28 5 -39 -2 -42 -28 -14 -10 11 -28
20 -39 20 -18 0 -16 -3 11 -20 41 -24 63 -68 70 -136 l6 -54 51 0 c38 1 58 7
80 24 18 15 24 26 17 30 -19 12 -12 23 17 29 15 4 54 32 87 63 64 60 109 87
165 99 34 8 35 8 10 17 -44 16 -87 0 -151 -57 -34 -30 -69 -55 -79 -55 -42 0
-98 116 -119 249 -11 68 -21 87 -53 97 -21 6 -21 14 5 74 16 37 10 74 -10 62z
m187 -502 c0 -5 -5 -10 -11 -10 -5 0 -7 5 -4 10 3 6 8 10 11 10 2 0 4 -4 4
-10z"/>
<path d="M2471 530 c0 -14 8 -76 19 -139 11 -62 20 -123 20 -135 0 -11 4 -27
9 -35 7 -11 12 -11 32 2 20 14 20 17 6 23 -11 4 -17 17 -17 35 0 23 5 29 23
30 21 1 21 1 -3 8 -21 6 -26 15 -32 55 -4 26 -10 55 -14 65 -4 9 -15 39 -25
66 -12 37 -17 43 -18 25z"/>
<path d="M1290 530 c0 -5 5 -10 11 -10 5 0 7 5 4 10 -3 6 -8 10 -11 10 -2 0
-4 -4 -4 -10z"/>
<path d="M1214 460 c15 -5 36 -16 46 -25 15 -14 18 -14 23 -1 6 16 -39 37 -77
35 -16 -1 -15 -3 8 -9z"/>
<path d="M3735 400 c-7 -12 22 -12 50 0 17 7 15 9 -12 9 -17 1 -35 -3 -38 -9z"/>
<path d="M1292 368 c5 -15 28 -23 28 -10 0 5 -7 13 -16 16 -10 4 -14 1 -12 -6z"/>
<path d="M721 355 c-1 -28 18 -95 28 -95 5 0 11 -10 14 -22 4 -12 9 -19 13
-15 4 4 20 -10 35 -31 33 -45 89 -82 89 -58 0 20 -149 167 -151 149 0 -4 -7
15 -14 42 -7 28 -13 41 -14 30z"/>
<path d="M3542 331 c-14 -9 -42 -57 -42 -73 0 -5 20 8 45 28 41 35 49 54 22
54 -7 0 -18 -4 -25 -9z"/>
<path d="M2823 313 c-15 -3 -23 -12 -23 -24 0 -19 2 -19 30 -4 17 9 28 20 25
25 -4 6 -7 9 -8 9 -1 -1 -12 -4 -24 -6z"/>
<path d="M3685 300 c-10 -11 -22 -20 -26 -20 -5 0 -25 -11 -45 -25 -34 -23
-35 -25 -12 -25 13 0 33 8 44 18 11 10 32 27 47 36 15 10 27 22 27 27 0 15
-16 10 -35 -11z"/>
<path d="M2380 191 c-5 -9 -11 -15 -14 -13 -3 1 -6 0 -6 -3 0 -3 0 -9 0 -14 0
-16 38 -23 60 -11 11 6 20 19 20 29 0 25 -47 35 -60 12z"/>
<path d="M3840 189 c-41 -5 -42 -6 -19 -13 15 -4 46 -4 70 1 36 8 40 10 19 14
-14 2 -45 2 -70 -2z"/>
<path d="M1390 157 c0 -17 8 -31 23 -38 24 -14 87 -78 87 -91 0 -4 7 -8 15 -8
20 0 19 9 -5 34 -12 12 -43 45 -70 75 -47 51 -50 52 -50 28z"/>
<path d="M2480 160 c-22 -17 -23 -19 -7 -25 25 -10 47 1 47 25 0 25 -8 25 -40
0z"/>
<path d="M3710 170 c-17 -6 -9 -7 25 -3 28 3 52 7 54 9 8 7 -54 2 -79 -6z"/>
<path d="M3658 153 c7 -3 16 -2 19 1 4 3 -2 6 -13 5 -11 0 -14 -3 -6 -6z"/>
<path d="M3985 119 c8 -12 115 -59 135 -59 22 0 36 18 23 31 -11 11 -164 38
-158 28z"/>
<path d="M3715 111 c39 -4 75 -10 81 -13 5 -4 41 -18 79 -32 63 -24 68 -24 45
-6 -55 45 -83 54 -180 56 -90 2 -92 2 -25 -5z"/>
<path d="M1880 80 c0 -13 5 -20 13 -17 6 2 12 10 12 17 0 7 -6 15 -12 18 -8 2
-13 -5 -13 -18z"/>
<path d="M3575 90 c-3 -5 -2 -10 4 -10 5 0 13 5 16 10 3 6 2 10 -4 10 -5 0
-13 -4 -16 -10z"/>
<path d="M2222 50 c12 -17 23 -30 25 -30 8 0 -22 50 -33 54 -9 3 -5 -7 8 -24z"/>
<path d="M4162 64 c-34 -23 -32 -27 41 -62 4 -2 7 15 7 37 0 45 -11 51 -48 25z"/>
</g>
</svg>
